<svg width="52" height="46" viewBox="0 0 52 46" fill="none" xmlns="http://www.w3.org/2000/svg">
<rect width="52" height="46" rx="10" fill="#FE4A23"/>
<path d="M13 27.925C13 29.2083 13.4583 30.3083 14.375 31.225L16.775 33.65C17.6917 34.55 18.7917 35 20.075 35C21.3583 35 22.4667 34.55 23.4 33.65L25.5 31.325C26.2167 30.625 26.65 29.7833 26.8 28.8C26.95 27.8167 26.8167 26.8917 26.4 26.025L21.1 31.325C20.8 31.625 20.4333 31.775 20 31.775C19.5667 31.775 19.1917 31.625 18.875 31.325L16.675 29.125C16.375 28.8083 16.225 28.4417 16.225 28.025C16.225 27.6083 16.375 27.2417 16.675 26.925L21.975 21.6C21.125 21.1833 20.2083 21.05 19.225 21.2C18.2417 21.35 17.3917 21.7833 16.675 22.5L14.375 24.625C13.4583 25.5417 13 26.6417 13 27.925ZM20.65 25.825C20.65 26.2583 20.8 26.625 21.1 26.925C21.4 27.225 21.7667 27.375 22.2 27.375C22.6333 27.375 23 27.225 23.3 26.925L29.925 20.3C30.225 20 30.375 19.6333 30.375 19.2C30.375 18.7667 30.225 18.4 29.925 18.1C29.6083 17.8 29.2333 17.65 28.8 17.65C28.3667 17.65 28 17.8 27.7 18.1L21.1 24.725C20.8 25.025 20.65 25.3917 20.65 25.825ZM24.2 16.225C24.05 17.2083 24.1833 18.1333 24.6 19L29.925 13.675C30.225 13.375 30.5917 13.225 31.025 13.225C31.4583 13.225 31.825 13.375 32.125 13.675L34.325 15.9C34.625 16.2 34.775 16.5667 34.775 17C34.775 17.4333 34.625 17.8 34.325 18.1L29.025 23.4C29.875 23.8333 30.7917 23.9667 31.775 23.8C32.7583 23.6333 33.6083 23.2 34.325 22.5L36.625 20.2C37.5417 19.2833 38 18.1833 38 16.9C38 15.6167 37.5417 14.5083 36.625 13.575L34.425 11.375C33.5083 10.4583 32.4083 10 31.125 10C29.8417 10 28.7333 10.4583 27.8 11.375L25.5 13.675C24.8 14.3917 24.3667 15.2417 24.2 16.225Z" fill="white"/>
</svg>
